<?xml version="1.0" encoding="utf-8"?>
<!-- Generator: Adobe Illustrator 16.0.0, SVG Export Plug-In . SVG Version: 6.00 Build 0)  -->
<!DOCTYPE svg PUBLIC "-//W3C//DTD SVG 1.1//EN" "http://www.w3.org/Graphics/SVG/1.1/DTD/svg11.dtd">
<svg version="1.1"
	 id="Layer_1" xmlns:dc="http://purl.org/dc/elements/1.1/" xmlns:cc="http://creativecommons.org/ns#" xmlns:rdf="http://www.w3.org/1999/02/22-rdf-syntax-ns#" xmlns:svg="http://www.w3.org/2000/svg" xmlns:sodipodi="http://sodipodi.sourceforge.net/DTD/sodipodi-0.dtd" xmlns:inkscape="http://www.inkscape.org/namespaces/inkscape" sodipodi:docname="AscensionNoText.svg" inkscape:version="0.91 r13725"
	 xmlns="http://www.w3.org/2000/svg" xmlns:xlink="http://www.w3.org/1999/xlink" x="0px" y="0px" width="199.527px"
	 height="172.8px" viewBox="44.237 51.264 199.527 172.8" enable-background="new 44.237 51.264 199.527 172.8"
	 xml:space="preserve">
<sodipodi:namedview  inkscape:cy="500" inkscape:cx="500" inkscape:zoom="0.236" showgrid="false" guidetolerance="10" gridtolerance="10" objecttolerance="10" bordercolor="#666666" pagecolor="#ffffff" borderopacity="1" id="namedview15" inkscape:current-layer="Layer_1" inkscape:window-maximized="0" inkscape:window-y="0" inkscape:window-x="0" inkscape:window-height="480" inkscape:pageshadow="2" inkscape:pageopacity="0" inkscape:window-width="690">
	</sodipodi:namedview>
<g id="g3">
	<polygon id="polygon5" fill="#FFFFFF" points="49.219,221.184 62.438,198.145 225.562,198.145 238.781,221.184 	"/>
	<path id="path7" fill="#FFFFFF" d="M223.834,201.023l9.993,17.281H54.173l9.907-17.281h159.695 M227.232,195.264H60.768
		l-16.531,28.801h0.115h199.296h0.115L227.232,195.264L227.232,195.264z"/>
</g>
<g id="g9">
	<polygon id="polygon11" fill="#FFFFFF" points="178.791,163.584 144,103.075 109.209,163.584 82.455,163.584 144,57.024 
		205.545,163.584 	"/>
	<path id="path13" fill="#FFFFFF" d="M144,62.784l56.563,97.92h-20.102l-31.479-54.72L144,97.315l-4.982,8.668l-31.479,54.72H87.437
		L144,62.784 M144,51.264l-66.528,115.2h33.408l33.12-57.6l33.12,57.6h33.407L144,51.264L144,51.264z"/>
</g>
</svg>
