<?xml version="1.0" encoding="utf-8"?>
<!-- Generator: Adobe Illustrator 16.0.0, SVG Export Plug-In . SVG Version: 6.00 Build 0)  -->
<!DOCTYPE svg PUBLIC "-//W3C//DTD SVG 1.1//EN" "http://www.w3.org/Graphics/SVG/1.1/DTD/svg11.dtd">
<svg version="1.1" id="Layer_1" xmlns="http://www.w3.org/2000/svg" xmlns:xlink="http://www.w3.org/1999/xlink" x="0px" y="0px"
	 width="260.813px" height="172.8px" viewBox="13.623 51.264 260.813 172.8" enable-background="new 13.623 51.264 260.813 172.8"
	 xml:space="preserve">
<g>
	<path fill="#FFFFFF" d="M15.005,182.563v8.094h-1.382v-20.16h4.867c2.073,0,3.657,0.489,4.752,1.439
		c1.094,0.951,1.642,2.362,1.642,4.205c0,1.872-0.605,3.428-1.843,4.608c-1.209,1.21-2.938,1.813-5.126,1.813H15.005L15.005,182.563
		z M15.005,171.764v9.532h2.88c1.814,0,3.197-0.432,4.147-1.296c0.95-0.864,1.411-2.103,1.411-3.687c0-3.024-1.728-4.55-5.213-4.55
		H15.005z"/>
	<path fill="#FFFFFF" d="M39.6,190.656l-2.679-5.904c-0.547-1.209-1.094-2.045-1.67-2.447c-0.547-0.404-1.238-0.635-2.073-0.635
		h-2.506v8.986H29.29v-20.16h5.559c1.786,0,3.168,0.489,4.205,1.439c1.008,0.951,1.526,2.219,1.526,3.803
		c0,1.439-0.403,2.678-1.238,3.628c-0.835,0.979-2.016,1.612-3.514,1.872v0.058c0.807,0.317,1.584,1.296,2.333,2.909l2.995,6.422
		H39.6V190.656z M30.643,171.764v8.64h3.485c1.526,0,2.765-0.403,3.658-1.21c0.893-0.807,1.354-1.9,1.354-3.312
		c0-1.296-0.403-2.304-1.209-3.024c-0.807-0.72-1.987-1.094-3.514-1.094H30.643z"/>
	<path fill="#FFFFFF" d="M53.539,191.002c-2.851,0-5.126-0.951-6.826-2.852c-1.699-1.9-2.534-4.349-2.534-7.373
		c0-3.226,0.864-5.789,2.621-7.719c1.728-1.93,4.119-2.908,7.114-2.908c2.707,0,4.925,0.922,6.595,2.793
		c1.67,1.873,2.534,4.292,2.534,7.316c0,3.34-0.864,5.961-2.592,7.861C58.752,190.051,56.448,191.002,53.539,191.002z
		 M53.683,171.418c-2.333,0-4.262,0.835-5.789,2.534s-2.275,3.917-2.275,6.653c0,2.764,0.72,4.982,2.16,6.623
		c1.44,1.643,3.341,2.477,5.731,2.477c2.506,0,4.464-0.806,5.933-2.447c1.44-1.613,2.188-3.889,2.188-6.797
		c0-2.852-0.72-5.068-2.131-6.682C58.061,172.225,56.131,171.418,53.683,171.418z"/>
	<path fill="#FFFFFF" d="M71.251,183.715c0,4.867-1.699,7.287-5.068,7.287c-0.519,0-1.037-0.059-1.527-0.202v-1.354
		c0.547,0.202,1.066,0.288,1.556,0.288c1.296,0,2.217-0.49,2.793-1.469c0.576-0.979,0.864-2.506,0.864-4.579v-13.19h1.382V183.715z"
		/>
	<path fill="#FFFFFF" d="M76.32,190.656v-20.16h9.418v1.268h-8.035v8.092h7.459v1.268h-7.459v8.266h8.496v1.268H76.32z"/>
	<path fill="#FFFFFF" d="M104.112,189.994c-1.642,0.662-3.341,1.008-5.098,1.008c-2.765,0-5.011-0.922-6.739-2.766
		c-1.728-1.843-2.621-4.262-2.621-7.258c0-3.283,0.951-5.903,2.822-7.861c1.872-1.988,4.292-2.967,7.2-2.967
		c1.555,0,3.024,0.26,4.435,0.749v1.469c-1.411-0.634-2.909-0.95-4.464-0.95c-2.534,0-4.579,0.863-6.163,2.563
		c-1.584,1.729-2.391,4.004-2.391,6.854c0,2.736,0.749,4.925,2.275,6.509s3.427,2.391,5.76,2.391c1.843,0,3.514-0.375,4.982-1.094
		V189.994z"/>
	<path fill="#FFFFFF" d="M114.077,171.764v18.893h-1.382v-18.893h-5.817v-1.268h13.018v1.268H114.077z"/>
	<path fill="#FFFFFF" d="M144.346,190.656l-2.304-6.279h-8.755l-2.304,6.279h-1.526l7.603-20.16h1.325l7.517,20.16H144.346z
		 M138.154,173.779c-0.115-0.288-0.202-0.547-0.259-0.836c-0.058-0.23-0.144-0.46-0.202-0.69h-0.058
		c-0.173,0.604-0.317,1.123-0.461,1.497l-3.398,9.36h7.776L138.154,173.779z"/>
	<path fill="#FFFFFF" d="M148.694,189.936v-1.584c1.44,0.922,2.909,1.383,4.378,1.383c1.584,0,2.765-0.316,3.6-0.979
		c0.807-0.663,1.21-1.556,1.21-2.736c0-1.037-0.288-1.844-0.835-2.477c-0.548-0.605-1.729-1.44-3.572-2.506
		c-2.045-1.182-3.34-2.189-3.887-2.996c-0.548-0.806-0.807-1.728-0.807-2.764c0-1.412,0.547-2.621,1.67-3.629
		c1.094-1.008,2.592-1.498,4.436-1.498c1.209,0,2.391,0.201,3.6,0.605v1.469c-1.181-0.548-2.447-0.807-3.773-0.807
		c-1.382,0-2.447,0.346-3.254,1.037c-0.807,0.69-1.209,1.584-1.209,2.648c0,1.037,0.287,1.844,0.835,2.448
		c0.547,0.604,1.728,1.44,3.542,2.478c1.872,1.064,3.14,2.016,3.773,2.851c0.633,0.835,0.922,1.786,0.922,2.852
		c0,1.555-0.548,2.822-1.613,3.772c-1.066,0.979-2.592,1.469-4.551,1.469c-0.691,0-1.498-0.115-2.391-0.316
		S149.184,190.225,148.694,189.936z"/>
	<path fill="#FFFFFF" d="M177.033,189.994c-1.641,0.662-3.34,1.008-5.098,1.008c-2.764,0-5.011-0.922-6.738-2.766
		c-1.729-1.843-2.621-4.262-2.621-7.258c0-3.283,0.95-5.903,2.822-7.861c1.872-1.988,4.291-2.967,7.2-2.967
		c1.556,0,3.024,0.26,4.435,0.749v1.469c-1.41-0.634-2.908-0.95-4.463-0.95c-2.535,0-4.58,0.863-6.164,2.563
		c-1.584,1.729-2.391,4.004-2.391,6.854c0,2.736,0.749,4.925,2.275,6.509s3.428,2.391,5.76,2.391c1.844,0,3.514-0.375,4.982-1.094
		V189.994z"/>
	<path fill="#FFFFFF" d="M181.526,190.656v-20.16h9.417v1.268h-8.035v8.092h7.46v1.268h-7.46v8.266h8.496v1.268H181.526z"/>
	<path fill="#FFFFFF" d="M210.183,190.656l-12.01-16.301c-0.23-0.316-0.461-0.662-0.634-0.979l-0.173-0.288h-0.058
		c0.029,0.23,0.029,0.547,0.029,0.893v16.676h-1.383v-20.16h1.066l11.922,16.156c0.26,0.346,0.548,0.777,0.865,1.297h0.057
		c-0.057-0.663-0.057-1.21-0.057-1.699v-15.754h1.382v20.16H210.183z"/>
	<path fill="#FFFFFF" d="M215.712,189.936v-1.584c1.44,0.922,2.909,1.383,4.378,1.383c1.584,0,2.765-0.316,3.6-0.979
		c0.807-0.663,1.21-1.556,1.21-2.736c0-1.037-0.288-1.844-0.835-2.477c-0.548-0.605-1.729-1.44-3.572-2.506
		c-2.044-1.182-3.34-2.189-3.887-2.996c-0.548-0.806-0.807-1.728-0.807-2.764c0-1.412,0.547-2.621,1.67-3.629
		c1.094-1.008,2.592-1.498,4.436-1.498c1.209,0,2.391,0.201,3.6,0.605v1.469c-1.181-0.548-2.447-0.807-3.772-0.807
		c-1.383,0-2.448,0.346-3.255,1.037c-0.807,0.69-1.209,1.584-1.209,2.648c0,1.037,0.287,1.844,0.835,2.448
		c0.547,0.604,1.728,1.44,3.542,2.478c1.872,1.064,3.14,2.016,3.773,2.851c0.633,0.835,0.922,1.786,0.922,2.852
		c0,1.555-0.548,2.822-1.613,3.772c-1.066,0.979-2.592,1.469-4.551,1.469c-0.691,0-1.498-0.115-2.391-0.316
		S216.201,190.225,215.712,189.936z"/>
	<path fill="#FFFFFF" d="M230.659,190.656v-20.16h1.382v20.16H230.659z"/>
	<path fill="#FFFFFF" d="M245.52,191.002c-2.851,0-5.126-0.951-6.825-2.852s-2.534-4.349-2.534-7.373
		c0-3.226,0.863-5.789,2.621-7.719c1.728-1.93,4.118-2.908,7.113-2.908c2.707,0,4.925,0.922,6.596,2.793
		c1.67,1.873,2.533,4.292,2.533,7.316c0,3.34-0.863,5.961-2.592,7.861C250.732,190.051,248.429,191.002,245.52,191.002z
		 M245.664,171.418c-2.333,0-4.263,0.835-5.789,2.534s-2.275,3.917-2.275,6.653c0,2.764,0.721,4.982,2.16,6.623
		c1.44,1.643,3.341,2.477,5.731,2.477c2.505,0,4.464-0.806,5.933-2.447c1.439-1.613,2.189-3.889,2.189-6.797
		c0-2.852-0.721-5.068-2.132-6.682C250.041,172.225,248.111,171.418,245.664,171.418z"/>
	<path fill="#FFFFFF" d="M273.428,190.656l-12.01-16.301c-0.23-0.316-0.461-0.662-0.634-0.979l-0.173-0.288h-0.058
		c0.028,0.23,0.028,0.547,0.028,0.893v16.676H259.2v-20.16h1.065l11.924,16.156c0.259,0.346,0.547,0.777,0.863,1.297h0.058
		c-0.058-0.663-0.058-1.21-0.058-1.699v-15.754h1.383v20.16H273.428z"/>
</g>
<g>
	<polygon fill="#FFFFFF" points="49.219,221.184 62.438,198.145 225.562,198.145 238.781,221.184 	"/>
	<path fill="#FFFFFF" d="M223.834,201.023l9.993,17.281H54.173l9.907-17.281h159.695 M227.232,195.264H60.768l-16.531,28.801h0.115
		h199.296h0.115L227.232,195.264L227.232,195.264z"/>
</g>
<g>
	<polygon fill="#FFFFFF" points="178.791,163.584 144,103.075 109.209,163.584 82.455,163.584 144,57.024 205.545,163.584 	"/>
	<path fill="#FFFFFF" d="M144,62.784l56.563,97.92h-20.102l-31.479-54.72L144,97.315l-4.982,8.668l-31.479,54.72H87.437L144,62.784
		 M144,51.264l-66.528,115.2h33.408l33.12-57.6l33.12,57.6h33.407L144,51.264L144,51.264z"/>
</g>
</svg>
